<?xml version="1.0" encoding="utf-8"?>
<!-- Generator: Adobe Illustrator 16.0.0, SVG Export Plug-In . SVG Version: 6.00 Build 0)  -->
<!DOCTYPE svg PUBLIC "-//W3C//DTD SVG 1.1//EN" "http://www.w3.org/Graphics/SVG/1.1/DTD/svg11.dtd">
<svg version="1.1" id="Layer_1" xmlns="http://www.w3.org/2000/svg" xmlns:xlink="http://www.w3.org/1999/xlink" x="0px" y="0px"
	 width="116.342px" height="36.404px" viewBox="0 0 116.342 36.404" enable-background="new 0 0 116.342 36.404"
	 xml:space="preserve">
<g>
	<path fill="#FFFFFF" d="M14.464,13.337c0,0-4.659-0.602-6.838-0.602s-2.63,0.488-2.63,1.502c0,0.864,0.714,1.053,4.17,1.691
		c4.358,0.789,5.898,2.066,5.898,5.861c0,4.396-2.855,6.086-7.551,6.086c-2.78,0-7.213-0.902-7.213-0.902l0.15-4.208
		c0,0,4.659,0.602,6.575,0.602c2.405,0,3.043-0.488,3.043-1.466c0-0.826-0.414-1.201-3.87-1.766C2.142,19.461,0,18.484,0,14.352
		c0-4.357,3.306-6.124,7.251-6.124c2.705,0,7.289,0.939,7.289,0.939L14.464,13.337z"/>
	<path fill="#FFFFFF" d="M17.996,1.127h5.035v5.109h-5.035V1.127z M17.996,8.641h5.035v18.785h-5.035V8.641z"/>
	<path fill="#FFFFFF" d="M32.67,12.924v7.702c0,1.878,0,2.742,1.578,2.742c1.052,0,2.855-0.075,2.855-0.075l0.226,4.02
		c0,0-2.517,0.564-3.832,0.564c-4.546,0-5.861-1.729-5.861-7.139v-7.813H25.42V8.641h2.216V3.419h5.034v5.222h4.621v4.283H32.67z"/>
	<path fill="#FFFFFF" d="M54.671,23.105l0.075,3.719c0,0-4.32,1.053-7.814,1.053c-5.673,0-8.077-2.818-8.077-9.581
		c0-6.688,2.817-10.106,8.303-10.106c5.523,0,8.19,2.817,8.19,8.49l-0.376,3.494H43.927c0.038,2.254,1.089,3.269,3.794,3.269
		C50.802,23.443,54.671,23.105,54.671,23.105z M50.389,16.343c0-3.043-0.864-4.021-3.231-4.021c-2.405,0-3.231,1.164-3.269,4.021
		H50.389z"/>
	<path fill="#FFFFFF" d="M58.59,0h1.315v27.426H58.59V0z"/>
	<path fill="#FFFFFF" d="M79.521,17.695c0,7.553-1.429,10.069-7.627,10.069c-6.199,0-7.627-2.517-7.627-10.069
		c0-6.949,2.066-9.392,7.627-9.392S79.521,10.745,79.521,17.695z M78.13,17.695c0-6.312-1.428-8.189-6.236-8.189
		c-4.81,0-6.236,1.878-6.236,8.189c0,6.462,0.676,8.866,6.236,8.866C77.454,26.562,78.13,24.156,78.13,17.695z"/>
	<path fill="#FFFFFF" d="M82.999,30.432c0-2.479,1.165-3.344,3.193-4.809c-0.602-0.375-0.827-1.277-0.827-2.442
		c0-0.563,1.127-2.931,1.127-2.931c-1.729-0.563-3.231-2.104-3.231-5.71c0-4.472,2.405-6.274,6.426-6.274
		c2.027,0,3.981,0.489,3.981,0.489l5.259-0.113v1.315H94.87c0.939,0.863,1.503,1.99,1.503,4.583c0,4.621-2.218,6.162-6.838,6.162
		c-0.302,0-1.578-0.075-2.029-0.15c0,0-0.864,2.141-0.864,2.63c0,1.841,0.227,2.029,5.147,2.029c4.659,0,6.649,0.751,6.649,5.41
		c0,4.058-2.403,5.785-8.002,5.785C84.201,36.405,82.999,34.865,82.999,30.432z M87.169,26.299
		c-2.179,1.503-2.816,2.292-2.816,4.095c0,3.569,0.938,4.81,6.123,4.81c4.659,0,6.575-1.354,6.575-4.584
		c0-3.794-1.54-4.208-5.335-4.208C90.175,26.412,87.169,26.299,87.169,26.299z M94.983,14.54c0-3.757-1.391-5.072-5.334-5.072
		c-3.531,0-5.034,1.315-5.034,5.072s1.502,4.959,5.034,4.959C93.593,19.499,94.983,18.296,94.983,14.54z"/>
	<path fill="#FFFFFF" d="M116.342,17.695c0,7.553-1.428,10.069-7.626,10.069c-6.199,0-7.627-2.517-7.627-10.069
		c0-6.949,2.066-9.392,7.627-9.392S116.342,10.745,116.342,17.695z M114.953,17.695c0-6.312-1.429-8.189-6.237-8.189
		s-6.236,1.878-6.236,8.189c0,6.462,0.676,8.866,6.236,8.866C114.276,26.562,114.953,24.156,114.953,17.695z"/>
</g>
<path fill="#9FBD2E" d="M81.08,36.405L0.301,32.342h79.22C79.521,35.277,81.08,36.405,81.08,36.405z"/>
</svg>
